<svg xmlns="http://www.w3.org/2000/svg" viewBox="0 0 200 200">
  <defs>
    <radialGradient id="bg-k" cx="0.5" cy="0.4" r="0.75">
      <stop offset="0%" stop-color="#bbf7d0"/>
      <stop offset="100%" stop-color="#22c55e"/>
    </radialGradient>
    <linearGradient id="koala-fur" x1="0" y1="0" x2="0" y2="1">
      <stop offset="0%" stop-color="#cbd5e1"/>
      <stop offset="100%" stop-color="#94a3b8"/>
    </linearGradient>
  </defs>
  <circle cx="100" cy="100" r="100" fill="url(#bg-k)"/>
  <path d="M150 55 Q 168 45 172 62 Q 156 68 150 55 Z" fill="#16a34a"/>
  <path d="M40 60 Q 24 52 22 68 Q 38 72 40 60 Z" fill="#16a34a"/>
  <path d="M52 200 Q 52 120 100 120 Q 148 120 148 200 Z" fill="url(#koala-fur)"/>
  <circle cx="52" cy="82" r="30" fill="url(#koala-fur)"/>
  <circle cx="148" cy="82" r="30" fill="url(#koala-fur)"/>
  <circle cx="52" cy="82" r="18" fill="#e2e8f0"/>
  <circle cx="148" cy="82" r="18" fill="#e2e8f0"/>
  <circle cx="52" cy="84" r="11" fill="#fbcfe8" opacity="0.8"/>
  <circle cx="148" cy="84" r="11" fill="#fbcfe8" opacity="0.8"/>
  <circle cx="100" cy="100" r="48" fill="url(#koala-fur)"/>
  <circle cx="80" cy="96" r="7" fill="#1f2937"/>
  <circle cx="120" cy="96" r="7" fill="#1f2937"/>
  <circle cx="82" cy="94" r="2.2" fill="#fff"/>
  <circle cx="122" cy="94" r="2.2" fill="#fff"/>
  <ellipse cx="100" cy="116" rx="16" ry="20" fill="#334155"/>
  <ellipse cx="94" cy="112" rx="3" ry="4" fill="#64748b"/>
  <ellipse cx="106" cy="112" rx="3" ry="4" fill="#64748b"/>
  <ellipse cx="66" cy="112" rx="7" ry="5" fill="#fbcfe8" opacity="0.7"/>
  <ellipse cx="134" cy="112" rx="7" ry="5" fill="#fbcfe8" opacity="0.7"/>
  <path d="M62 60 Q 100 30 138 60 Q 100 50 62 60 Z" fill="#f59e0b"/>
  <path d="M74 58 Q 100 40 126 58 L 122 46 Q 100 36 78 46 Z" fill="#d97706"/>
</svg>
