<svg xmlns="http://www.w3.org/2000/svg" viewBox="0 0 200 200"><defs><radialGradient id="bg-l" cx="0.5" cy="0.4" r="0.75"><stop offset="0%" stop-color="#fef3c7"/><stop offset="100%" stop-color="#f59e0b"/></radialGradient><radialGradient id="mane" cx="0.5" cy="0.5" r="0.6"><stop offset="0%" stop-color="#d97706"/><stop offset="100%" stop-color="#92400e"/></radialGradient></defs><circle cx="100" cy="100" r="100" fill="url(#bg-l)"/><g fill="url(#mane)"><circle cx="100" cy="105" r="62"/><circle cx="55" cy="80" r="20"/><circle cx="145" cy="80" r="20"/><circle cx="48" cy="115" r="20"/><circle cx="152" cy="115" r="20"/><circle cx="62" cy="150" r="20"/><circle cx="138" cy="150" r="20"/><circle cx="100" cy="160" r="20"/><circle cx="60" cy="55" r="16"/><circle cx="140" cy="55" r="16"/><circle cx="100" cy="48" r="16"/></g><circle cx="100" cy="103" r="45" fill="#fbbf24"/><circle cx="66" cy="70" r="12" fill="#fbbf24"/><circle cx="134" cy="70" r="12" fill="#fbbf24"/><circle cx="82" cy="98" r="6.5" fill="#1f2937"/><circle cx="118" cy="98" r="6.5" fill="#1f2937"/><ellipse cx="100" cy="122" rx="24" ry="18" fill="#fef3c7"/><path d="M92 116 Q 100 124 108 116 Z" fill="#7c2d12"/><path d="M100 122 L 100 128 M 100 128 Q 93 133 88 130 M 100 128 Q 107 133 112 130" stroke="#7c2d12" stroke-width="2.5" fill="none" stroke-linecap="round"/></svg>
