<svg xmlns="http://www.w3.org/2000/svg" viewBox="0 0 200 200"><defs><radialGradient id="bg-m" cx="0.5" cy="0.4" r="0.75"><stop offset="0%" stop-color="#bbf7d0"/><stop offset="100%" stop-color="#16a34a"/></radialGradient><linearGradient id="monkey-fur" x1="0" y1="0" x2="0" y2="1"><stop offset="0%" stop-color="#a16207"/><stop offset="100%" stop-color="#78350f"/></linearGradient></defs><circle cx="100" cy="100" r="100" fill="url(#bg-m)"/><path d="M150 48 Q 172 54 168 74 Q 160 60 150 58 Z" fill="#facc15" stroke="#ca8a04" stroke-width="2"/><path d="M58 200 Q 58 128 100 128 Q 142 128 142 200 Z" fill="url(#monkey-fur)"/><circle cx="52" cy="98" r="22" fill="url(#monkey-fur)"/><circle cx="148" cy="98" r="22" fill="url(#monkey-fur)"/><circle cx="52" cy="98" r="12" fill="#e9b384"/><circle cx="148" cy="98" r="12" fill="#e9b384"/><circle cx="100" cy="98" r="46" fill="url(#monkey-fur)"/><ellipse cx="100" cy="108" rx="34" ry="32" fill="#e9b384"/><circle cx="84" cy="96" r="7" fill="#1f2937"/><circle cx="116" cy="96" r="7" fill="#1f2937"/><ellipse cx="94" cy="112" rx="2.5" ry="3.5" fill="#7c2d12"/><ellipse cx="106" cy="112" rx="2.5" ry="3.5" fill="#7c2d12"/><path d="M82 118 Q 100 136 118 118 Q 100 128 82 118 Z" fill="#7c2d12"/></svg>
