<svg xmlns="http://www.w3.org/2000/svg" viewBox="0 0 200 200"><defs><radialGradient id="bg-o" cx="0.5" cy="0.4" r="0.75"><stop offset="0%" stop-color="#c7d2fe"/><stop offset="100%" stop-color="#6366f1"/></radialGradient><linearGradient id="owl-body" x1="0" y1="0" x2="0" y2="1"><stop offset="0%" stop-color="#a16207"/><stop offset="100%" stop-color="#78350f"/></linearGradient></defs><circle cx="100" cy="100" r="100" fill="url(#bg-o)"/><circle cx="45" cy="55" r="2.5" fill="#fff" opacity="0.8"/><circle cx="158" cy="70" r="2" fill="#fff" opacity="0.7"/><path d="M45 200 Q 45 110 100 110 Q 155 110 155 200 Z" fill="url(#owl-body)"/><path d="M78 150 Q 100 200 122 150 Q 100 165 78 150 Z" fill="#fde68a" opacity="0.7"/><path d="M60 78 L 52 48 L 78 70 Z" fill="url(#owl-body)"/><path d="M140 78 L 148 48 L 122 70 Z" fill="url(#owl-body)"/><circle cx="100" cy="100" r="46" fill="url(#owl-body)"/><circle cx="82" cy="96" r="20" fill="#fafaf9"/><circle cx="118" cy="96" r="20" fill="#fafaf9"/><circle cx="82" cy="98" r="11" fill="#1f2937"/><circle cx="118" cy="98" r="11" fill="#1f2937"/><circle cx="86" cy="94" r="3.5" fill="#fff"/><circle cx="122" cy="94" r="3.5" fill="#fff"/><path d="M100 106 L 92 118 L 108 118 Z" fill="#f59e0b"/><path d="M70 142 Q 100 156 130 142 L 128 152 Q 100 165 72 152 Z" fill="#ef4444"/></svg>
